<svg width="33" height="33" viewBox="0 0 33 33" fill="none" xmlns="http://www.w3.org/2000/svg">
<path d="M20.1459 11.3958C20.1459 12.3628 19.7618 13.2901 19.0781 13.9738C18.3943 14.6576 17.467 15.0417 16.5001 15.0417C15.5331 15.0417 14.6058 14.6576 13.9221 13.9738C13.2384 13.2901 12.8542 12.3628 12.8542 11.3958C12.8542 10.4289 13.2384 9.50157 13.9221 8.81784C14.6058 8.13411 15.5331 7.75 16.5001 7.75C17.467 7.75 18.3943 8.13411 19.0781 8.81784C19.7618 9.50157 20.1459 10.4289 20.1459 11.3958Z" fill="white"/>
<path d="M21.7223 22.334H11.4046C10.8023 22.334 10.4829 21.6646 10.8986 21.2286C12.1338 19.9321 14.3986 17.959 16.7436 17.959C19.1104 17.959 21.174 19.9715 22.2561 21.2665C22.6265 21.7098 22.2998 22.334 21.7223 22.334Z" fill="white" stroke="white" stroke-width="2" stroke-linecap="round" stroke-linejoin="round"/>
<path d="M16.5001 31.0837C24.5542 31.0837 31.0834 24.5545 31.0834 16.5003C31.0834 8.44617 24.5542 1.91699 16.5001 1.91699C8.44593 1.91699 1.91675 8.44617 1.91675 16.5003C1.91675 24.5545 8.44593 31.0837 16.5001 31.0837Z" stroke="white" stroke-width="2"/>
</svg>
